<svg width="101" height="100" viewBox="0 0 101 100" fill="none" xmlns="http://www.w3.org/2000/svg">
<rect x="1" y="0.5" width="99" height="99" rx="49.5" stroke="white"/>
<path d="M58.078 22.1588C58.078 22.2193 58.0498 22.2786 57.9953 22.3366C57.4736 22.8922 54.5445 23.3176 51.0093 23.3176C47.474 23.3176 44.545 22.8922 44.0232 22.3366C43.9688 22.2786 43.9405 22.2193 43.9405 22.1588C43.9405 21.5188 47.1053 21 51.0093 21C54.9132 21 58.078 21.5188 58.078 22.1588Z" fill="#7B7B7B"/>
<path d="M74.9363 74.974C74.8835 74.9447 74.8453 74.8912 74.821 74.8155C74.5886 74.0896 75.6386 71.3223 77.3548 68.2316C79.071 65.1409 80.8649 62.7867 81.604 62.6002C81.681 62.5808 81.7467 62.5849 81.7995 62.6143C82.359 62.9249 81.2762 65.9436 79.381 69.3567C77.4858 72.7698 75.4958 75.2847 74.9363 74.974Z" fill="#7B7B7B"/>
<path d="M27.0105 74.974C27.0634 74.9447 27.1016 74.8912 27.1258 74.8155C27.3583 74.0896 26.3083 71.3223 24.5921 68.2316C22.8758 65.1409 21.0819 62.7867 20.3429 62.6002C20.2658 62.5808 20.2002 62.5849 20.1474 62.6143C19.5878 62.9249 20.6706 65.9436 22.5659 69.3567C24.4611 72.7698 26.451 75.2847 27.0105 74.974Z" fill="#7B7B7B"/>
<path d="M44.0232 22.3366L39.4559 46.7717L39.6337 46.6245L50.9734 53.1698L62.3132 46.6245L62.5758 46.8419L57.9953 22.3366C57.4736 22.8922 54.5445 23.3176 51.0093 23.3176C47.474 23.3176 44.545 22.8922 44.0232 22.3366Z" fill="#7B7B7B"/>
<path d="M62.5973 46.9573L51.3264 53.7198L50.9734 64.2444L51.062 66.8864L74.821 74.8155C74.5886 74.0896 75.6386 71.3223 77.3548 68.2316C79.071 65.1409 80.8649 62.7867 81.604 62.6002L62.5758 46.8419L62.5973 46.9573Z" fill="#7B7B7B"/>
<path d="M50.6189 53.676L39.4212 46.9573L39.4559 46.7717L20.3429 62.6002C21.0819 62.7867 22.8758 65.1409 24.5921 68.2316C26.3083 71.3223 27.3583 74.0896 27.1258 74.8155L50.8848 66.8864L50.9734 64.2444L50.6189 53.676Z" fill="#7B7B7B"/>
<path d="M39.6337 46.6245L39.4559 46.7717L39.4212 46.9573L50.6189 53.676L50.609 53.3801L50.9734 53.1698L39.6337 46.6245Z" fill="#7B7B7B"/>
<path d="M62.3132 46.6245L50.9734 53.1698L51.3378 53.3801L51.3264 53.7198L62.5973 46.9573L62.5758 46.8419L62.3132 46.6245Z" fill="#7B7B7B"/>
<path d="M50.9734 64.2444L51.3264 53.7198L51.0093 53.9102L50.6189 53.676L50.9734 64.2444Z" fill="#7B7B7B"/>
<path d="M51.3378 53.3801L50.9734 53.1698L50.609 53.3801L50.6189 53.676L51.0093 53.9102L51.3264 53.7198L51.3378 53.3801Z" fill="#7B7B7B"/>
<path d="M44.0564 22.1588L44.0232 22.3366M57.9621 22.1588L57.9953 22.3366M81.7432 62.7156L81.604 62.6002M74.9926 74.8727L74.821 74.8155M20.2036 62.7156L20.3429 62.6002M26.9543 74.8727L27.1258 74.8155M44.0232 22.3366L39.4559 46.7717M44.0232 22.3366C44.545 22.8922 47.474 23.3176 51.0093 23.3176C54.5445 23.3176 57.4736 22.8922 57.9953 22.3366M44.0232 22.3366C43.9688 22.2786 43.9405 22.2193 43.9405 22.1588C43.9405 21.5188 47.1053 21 51.0093 21C54.9132 21 58.078 21.5188 58.078 22.1588C58.078 22.2193 58.0498 22.2786 57.9953 22.3366M39.4559 46.7717L39.6337 46.6245L50.9734 53.1698M39.4559 46.7717L39.4212 46.9573L50.6189 53.676M39.4559 46.7717L20.3429 62.6002M50.9734 53.1698L62.3132 46.6245L62.5758 46.8419M50.9734 53.1698L51.3378 53.3801L51.3264 53.7199M50.9734 53.1698L50.609 53.3801L50.6189 53.676M62.5758 46.8419L57.9953 22.3366M62.5758 46.8419L62.5973 46.9573L51.3264 53.7199M62.5758 46.8419L81.604 62.6002M51.3264 53.7199L50.9734 64.2444M51.3264 53.7199L51.0093 53.9102L50.6189 53.676M50.9734 64.2444L51.062 66.8864L74.821 74.8155M50.9734 64.2444L50.8848 66.8864L27.1258 74.8155M50.9734 64.2444L50.6189 53.676M74.821 74.8155C74.5886 74.0896 75.6386 71.3223 77.3548 68.2316C79.071 65.1409 80.8649 62.7867 81.604 62.6002M74.821 74.8155C74.8453 74.8912 74.8835 74.9447 74.9363 74.974C75.4958 75.2847 77.4858 72.7698 79.381 69.3567C81.2762 65.9436 82.359 62.9249 81.7995 62.6142C81.7466 62.5849 81.681 62.5808 81.604 62.6002M20.3429 62.6002C21.0819 62.7867 22.8758 65.1409 24.5921 68.2316C26.3083 71.3223 27.3583 74.0896 27.1258 74.8155M20.3429 62.6002C20.2658 62.5808 20.2002 62.5849 20.1474 62.6142C19.5878 62.9249 20.6706 65.9436 22.5659 69.3567C24.4611 72.7698 26.451 75.2847 27.0105 74.974C27.0634 74.9447 27.1016 74.8912 27.1258 74.8155" stroke="#7B7B7B"/>
</svg>
